<mxfile host="app.diagrams.net" modified="2020-12-23T07:31:49.412Z" agent="5.0 (Windows NT 10.0; Win64; x64) AppleWebKit/537.36 (KHTML, like Gecko) Chrome/87.0.4280.11 Safari/537.36" etag="8x0NIeQGdqSrdQVxbEJB" version="14.1.1" type="github">
  <diagram id="X5dpKuWygnAA0jNGLA90" name="Page-1">
    <mxGraphModel dx="4543" dy="762" grid="1" gridSize="10" guides="1" tooltips="1" connect="1" arrows="1" fold="1" page="1" pageScale="1" pageWidth="827" pageHeight="1169" math="0" shadow="0">
      <root>
        <mxCell id="0" />
        <mxCell id="1" parent="0" />
        <mxCell id="eisepbIUf9f-H5HwsfT_-105" style="edgeStyle=orthogonalEdgeStyle;curved=1;rounded=0;orthogonalLoop=1;jettySize=auto;html=1;exitX=0.25;exitY=0;exitDx=0;exitDy=0;entryX=0.998;entryY=0.614;entryDx=0;entryDy=0;entryPerimeter=0;fontSize=12;fontColor=#000000;" parent="1" source="eisepbIUf9f-H5HwsfT_-79" target="eisepbIUf9f-H5HwsfT_-84" edge="1">
          <mxGeometry relative="1" as="geometry" />
        </mxCell>
        <mxCell id="eisepbIUf9f-H5HwsfT_-106" value="从Spring容器中获取ILoadBalancer实例" style="edgeLabel;html=1;align=center;verticalAlign=middle;resizable=0;points=[];fontSize=12;fontColor=#000000;" parent="eisepbIUf9f-H5HwsfT_-105" vertex="1" connectable="0">
          <mxGeometry x="0.0118" y="36" relative="1" as="geometry">
            <mxPoint x="-27" y="-5.83" as="offset" />
          </mxGeometry>
        </mxCell>
        <mxCell id="YZ4I5TcnRw2fmJpVWaly-18" style="edgeStyle=orthogonalEdgeStyle;rounded=0;orthogonalLoop=1;jettySize=auto;html=1;exitX=0;exitY=0.5;exitDx=0;exitDy=0;" parent="1" source="YZ4I5TcnRw2fmJpVWaly-1" target="YZ4I5TcnRw2fmJpVWaly-17" edge="1">
          <mxGeometry relative="1" as="geometry" />
        </mxCell>
        <mxCell id="YZ4I5TcnRw2fmJpVWaly-19" value="@Bean" style="edgeLabel;html=1;align=center;verticalAlign=middle;resizable=0;points=[];" parent="YZ4I5TcnRw2fmJpVWaly-18" vertex="1" connectable="0">
          <mxGeometry x="0.096" y="-1" relative="1" as="geometry">
            <mxPoint x="-38" as="offset" />
          </mxGeometry>
        </mxCell>
        <mxCell id="YZ4I5TcnRw2fmJpVWaly-21" style="edgeStyle=orthogonalEdgeStyle;rounded=0;orthogonalLoop=1;jettySize=auto;html=1;exitX=1;exitY=0.5;exitDx=0;exitDy=0;" parent="1" source="YZ4I5TcnRw2fmJpVWaly-1" target="YZ4I5TcnRw2fmJpVWaly-20" edge="1">
          <mxGeometry relative="1" as="geometry" />
        </mxCell>
        <mxCell id="YZ4I5TcnRw2fmJpVWaly-22" value="@Bean" style="edgeLabel;html=1;align=center;verticalAlign=middle;resizable=0;points=[];" parent="YZ4I5TcnRw2fmJpVWaly-21" vertex="1" connectable="0">
          <mxGeometry x="0.2258" y="2" relative="1" as="geometry">
            <mxPoint as="offset" />
          </mxGeometry>
        </mxCell>
        <mxCell id="YZ4I5TcnRw2fmJpVWaly-27" style="edgeStyle=orthogonalEdgeStyle;rounded=0;orthogonalLoop=1;jettySize=auto;html=1;exitX=0.5;exitY=1;exitDx=0;exitDy=0;" parent="1" source="YZ4I5TcnRw2fmJpVWaly-1" target="YZ4I5TcnRw2fmJpVWaly-26" edge="1">
          <mxGeometry relative="1" as="geometry" />
        </mxCell>
        <mxCell id="eisepbIUf9f-H5HwsfT_-62" style="edgeStyle=orthogonalEdgeStyle;rounded=0;orthogonalLoop=1;jettySize=auto;html=1;exitX=0;exitY=0;exitDx=0;exitDy=0;fontSize=12;fontColor=#000000;" parent="1" source="YZ4I5TcnRw2fmJpVWaly-1" target="eisepbIUf9f-H5HwsfT_-60" edge="1">
          <mxGeometry relative="1" as="geometry">
            <Array as="points">
              <mxPoint x="260" y="150" />
              <mxPoint x="240" y="150" />
              <mxPoint x="240" y="100" />
              <mxPoint x="-350" y="100" />
            </Array>
          </mxGeometry>
        </mxCell>
        <mxCell id="eisepbIUf9f-H5HwsfT_-63" value="@Bean" style="edgeLabel;html=1;align=center;verticalAlign=middle;resizable=0;points=[];fontSize=12;fontColor=#000000;" parent="eisepbIUf9f-H5HwsfT_-62" vertex="1" connectable="0">
          <mxGeometry x="0.08" y="-4" relative="1" as="geometry">
            <mxPoint as="offset" />
          </mxGeometry>
        </mxCell>
        <mxCell id="YZ4I5TcnRw2fmJpVWaly-1" value="LoadBalancerAutoConfiguration" style="rounded=0;whiteSpace=wrap;fillColor=#dae8fc;strokeColor=#6c8ebf;gradientColor=#7ea6e0;" parent="1" vertex="1">
          <mxGeometry x="260" y="120" width="200" height="60" as="geometry" />
        </mxCell>
        <mxCell id="YZ4I5TcnRw2fmJpVWaly-41" style="edgeStyle=orthogonalEdgeStyle;orthogonalLoop=1;jettySize=auto;html=1;exitX=1;exitY=0.5;exitDx=0;exitDy=0;entryX=0.5;entryY=0;entryDx=0;entryDy=0;rounded=0;dashed=1;" parent="1" source="YZ4I5TcnRw2fmJpVWaly-17" target="YZ4I5TcnRw2fmJpVWaly-20" edge="1">
          <mxGeometry relative="1" as="geometry">
            <Array as="points">
              <mxPoint x="60" y="290" />
              <mxPoint x="750" y="290" />
            </Array>
          </mxGeometry>
        </mxCell>
        <mxCell id="YZ4I5TcnRw2fmJpVWaly-17" value="LoadBalancerInterceptor" style="rounded=0;whiteSpace=wrap;" parent="1" vertex="1">
          <mxGeometry x="-140" y="320" width="200" height="60" as="geometry" />
        </mxCell>
        <mxCell id="YZ4I5TcnRw2fmJpVWaly-31" style="edgeStyle=orthogonalEdgeStyle;rounded=0;orthogonalLoop=1;jettySize=auto;html=1;exitX=0;exitY=0.5;exitDx=0;exitDy=0;entryX=1;entryY=0.5;entryDx=0;entryDy=0;dashed=1;" parent="1" source="YZ4I5TcnRw2fmJpVWaly-20" target="YZ4I5TcnRw2fmJpVWaly-26" edge="1">
          <mxGeometry relative="1" as="geometry" />
        </mxCell>
        <mxCell id="YZ4I5TcnRw2fmJpVWaly-32" value="&lt;span style=&quot;font-size: 12px&quot;&gt;注入到&lt;/span&gt;" style="edgeLabel;html=1;align=center;verticalAlign=middle;resizable=0;points=[];" parent="YZ4I5TcnRw2fmJpVWaly-31" vertex="1" connectable="0">
          <mxGeometry x="-0.1368" y="1" relative="1" as="geometry">
            <mxPoint x="-8" y="-1" as="offset" />
          </mxGeometry>
        </mxCell>
        <mxCell id="YZ4I5TcnRw2fmJpVWaly-20" value="RestTemplateCustomizer" style="rounded=0;whiteSpace=wrap;" parent="1" vertex="1">
          <mxGeometry x="650" y="320" width="200" height="60" as="geometry" />
        </mxCell>
        <mxCell id="YZ4I5TcnRw2fmJpVWaly-34" style="edgeStyle=orthogonalEdgeStyle;rounded=0;orthogonalLoop=1;jettySize=auto;html=1;exitX=0.5;exitY=1;exitDx=0;exitDy=0;" parent="1" source="YZ4I5TcnRw2fmJpVWaly-26" target="YZ4I5TcnRw2fmJpVWaly-33" edge="1">
          <mxGeometry relative="1" as="geometry" />
        </mxCell>
        <mxCell id="YZ4I5TcnRw2fmJpVWaly-35" value="spring初始化所有bean后回调" style="edgeLabel;html=1;align=center;verticalAlign=middle;resizable=0;points=[];" parent="YZ4I5TcnRw2fmJpVWaly-34" vertex="1" connectable="0">
          <mxGeometry x="-0.2" y="-1" relative="1" as="geometry">
            <mxPoint x="1" y="20" as="offset" />
          </mxGeometry>
        </mxCell>
        <mxCell id="YZ4I5TcnRw2fmJpVWaly-26" value="SmartInitializingSingleton" style="rounded=0;whiteSpace=wrap;" parent="1" vertex="1">
          <mxGeometry x="260" y="320" width="200" height="60" as="geometry" />
        </mxCell>
        <mxCell id="YZ4I5TcnRw2fmJpVWaly-33" value="customizer.customize(restTemplate);" style="rounded=0;whiteSpace=wrap;" parent="1" vertex="1">
          <mxGeometry x="250" y="570" width="220" height="60" as="geometry" />
        </mxCell>
        <mxCell id="YZ4I5TcnRw2fmJpVWaly-42" value="&lt;span style=&quot;font-size: 12px&quot;&gt;注入到&lt;/span&gt;" style="edgeLabel;html=1;align=center;verticalAlign=middle;resizable=0;points=[];" parent="1" vertex="1" connectable="0">
          <mxGeometry x="100" y="290" as="geometry" />
        </mxCell>
        <mxCell id="YZ4I5TcnRw2fmJpVWaly-45" style="edgeStyle=orthogonalEdgeStyle;rounded=0;orthogonalLoop=1;jettySize=auto;html=1;exitX=0.5;exitY=0;exitDx=0;exitDy=0;strokeColor=#000000;" parent="1" source="YZ4I5TcnRw2fmJpVWaly-43" target="YZ4I5TcnRw2fmJpVWaly-20" edge="1">
          <mxGeometry relative="1" as="geometry" />
        </mxCell>
        <mxCell id="YZ4I5TcnRw2fmJpVWaly-46" value="属于" style="edgeLabel;html=1;align=center;verticalAlign=middle;resizable=0;points=[];" parent="YZ4I5TcnRw2fmJpVWaly-45" vertex="1" connectable="0">
          <mxGeometry x="0.1263" y="-1" relative="1" as="geometry">
            <mxPoint as="offset" />
          </mxGeometry>
        </mxCell>
        <mxCell id="YZ4I5TcnRw2fmJpVWaly-43" value="restTemplate.setInterceptors&#xa;(LoadBalancerInterceptor);" style="rounded=0;fillColor=#f8cecc;strokeColor=#b85450;whiteSpace=wrap;" parent="1" vertex="1">
          <mxGeometry x="640" y="570" width="220" height="60" as="geometry" />
        </mxCell>
        <mxCell id="eisepbIUf9f-H5HwsfT_-4" value="&lt;h1&gt;注入流程&lt;/h1&gt;" style="text;html=1;strokeColor=none;fillColor=none;spacing=5;spacingTop=-20;whiteSpace=wrap;overflow=hidden;rounded=0;align=center;verticalAlign=middle;" parent="1" vertex="1">
          <mxGeometry x="270" y="50" width="180" height="40" as="geometry" />
        </mxCell>
        <mxCell id="eisepbIUf9f-H5HwsfT_-30" value="" style="edgeStyle=orthogonalEdgeStyle;rounded=0;orthogonalLoop=1;jettySize=auto;html=1;" parent="1" source="eisepbIUf9f-H5HwsfT_-31" target="eisepbIUf9f-H5HwsfT_-34" edge="1">
          <mxGeometry relative="1" as="geometry" />
        </mxCell>
        <mxCell id="eisepbIUf9f-H5HwsfT_-31" value="RestTemplate" style="rounded=0;whiteSpace=wrap;" parent="1" vertex="1">
          <mxGeometry x="1100" y="120" width="200" height="60" as="geometry" />
        </mxCell>
        <mxCell id="eisepbIUf9f-H5HwsfT_-32" value="&lt;h1&gt;执行流程&lt;/h1&gt;" style="text;html=1;strokeColor=none;fillColor=none;spacing=5;spacingTop=-20;whiteSpace=wrap;overflow=hidden;rounded=0;align=center;verticalAlign=middle;" parent="1" vertex="1">
          <mxGeometry x="1110" y="50" width="180" height="40" as="geometry" />
        </mxCell>
        <mxCell id="eisepbIUf9f-H5HwsfT_-33" value="" style="edgeStyle=orthogonalEdgeStyle;rounded=0;orthogonalLoop=1;jettySize=auto;html=1;" parent="1" source="eisepbIUf9f-H5HwsfT_-34" target="eisepbIUf9f-H5HwsfT_-36" edge="1">
          <mxGeometry relative="1" as="geometry" />
        </mxCell>
        <mxCell id="eisepbIUf9f-H5HwsfT_-34" value="getForObject()" style="rounded=0;whiteSpace=wrap;" parent="1" vertex="1">
          <mxGeometry x="1100" y="260" width="200" height="60" as="geometry" />
        </mxCell>
        <mxCell id="eisepbIUf9f-H5HwsfT_-35" value="" style="edgeStyle=orthogonalEdgeStyle;rounded=0;orthogonalLoop=1;jettySize=auto;html=1;" parent="1" source="eisepbIUf9f-H5HwsfT_-36" target="eisepbIUf9f-H5HwsfT_-39" edge="1">
          <mxGeometry relative="1" as="geometry" />
        </mxCell>
        <mxCell id="eisepbIUf9f-H5HwsfT_-36" value="doExecute()" style="rounded=0;whiteSpace=wrap;" parent="1" vertex="1">
          <mxGeometry x="1100" y="400" width="200" height="60" as="geometry" />
        </mxCell>
        <mxCell id="eisepbIUf9f-H5HwsfT_-37" value="" style="edgeStyle=orthogonalEdgeStyle;rounded=0;orthogonalLoop=1;jettySize=auto;html=1;" parent="1" source="eisepbIUf9f-H5HwsfT_-39" target="eisepbIUf9f-H5HwsfT_-42" edge="1">
          <mxGeometry relative="1" as="geometry" />
        </mxCell>
        <mxCell id="eisepbIUf9f-H5HwsfT_-38" value="" style="edgeStyle=orthogonalEdgeStyle;rounded=0;orthogonalLoop=1;jettySize=auto;html=1;fontSize=12;fontColor=#000000;" parent="1" source="eisepbIUf9f-H5HwsfT_-39" target="eisepbIUf9f-H5HwsfT_-48" edge="1">
          <mxGeometry relative="1" as="geometry" />
        </mxCell>
        <mxCell id="eisepbIUf9f-H5HwsfT_-39" value="ClientHttpRequest request = createRequest(url, method);" style="rounded=0;whiteSpace=wrap;" parent="1" vertex="1">
          <mxGeometry x="1100" y="540" width="200" height="60" as="geometry" />
        </mxCell>
        <mxCell id="eisepbIUf9f-H5HwsfT_-40" style="edgeStyle=orthogonalEdgeStyle;rounded=0;orthogonalLoop=1;jettySize=auto;html=1;exitX=1;exitY=0.5;exitDx=0;exitDy=0;fontSize=12;fontColor=#000000;" parent="1" source="eisepbIUf9f-H5HwsfT_-42" target="eisepbIUf9f-H5HwsfT_-44" edge="1">
          <mxGeometry relative="1" as="geometry" />
        </mxCell>
        <mxCell id="eisepbIUf9f-H5HwsfT_-41" value="&lt;span style=&quot;background-color: rgb(248 , 249 , 250)&quot;&gt;getRequestFactory&lt;/span&gt;" style="edgeLabel;html=1;align=center;verticalAlign=middle;resizable=0;points=[];fontSize=12;fontColor=#000000;" parent="eisepbIUf9f-H5HwsfT_-40" vertex="1" connectable="0">
          <mxGeometry x="0.2833" relative="1" as="geometry">
            <mxPoint y="11" as="offset" />
          </mxGeometry>
        </mxCell>
        <mxCell id="eisepbIUf9f-H5HwsfT_-42" value="ClientHttpRequest request = getRequestFactory().createRequest(url, method);" style="rounded=0;whiteSpace=wrap;" parent="1" vertex="1">
          <mxGeometry x="1450" y="540" width="460" height="60" as="geometry" />
        </mxCell>
        <mxCell id="eisepbIUf9f-H5HwsfT_-43" value="" style="edgeStyle=orthogonalEdgeStyle;rounded=0;orthogonalLoop=1;jettySize=auto;html=1;fontSize=12;fontColor=#000000;" parent="1" source="eisepbIUf9f-H5HwsfT_-44" target="eisepbIUf9f-H5HwsfT_-45" edge="1">
          <mxGeometry relative="1" as="geometry" />
        </mxCell>
        <mxCell id="eisepbIUf9f-H5HwsfT_-44" value="factory = new InterceptingClientHttpRequestFactory(super.getRequestFactory(),&#xa;getInterceptors());&#xa;retrun factory" style="rounded=0;whiteSpace=wrap;fontSize=12;" parent="1" vertex="1">
          <mxGeometry x="1890" y="710" width="380" height="110" as="geometry" />
        </mxCell>
        <mxCell id="eisepbIUf9f-H5HwsfT_-45" value="new InterceptingClientHttpRequest&#xa;(requestFactory, this.interceptors, uri, httpMethod);" style="rounded=0;whiteSpace=wrap;fontSize=12;" parent="1" vertex="1">
          <mxGeometry x="1925" y="920" width="310" height="40" as="geometry" />
        </mxCell>
        <mxCell id="eisepbIUf9f-H5HwsfT_-46" value="" style="edgeStyle=orthogonalEdgeStyle;rounded=0;orthogonalLoop=1;jettySize=auto;html=1;fontSize=12;fontColor=#000000;entryX=0.5;entryY=0;entryDx=0;entryDy=0;" parent="1" source="eisepbIUf9f-H5HwsfT_-48" target="9JMyvKj739sPmpi3a1Pc-1" edge="1">
          <mxGeometry relative="1" as="geometry" />
        </mxCell>
        <mxCell id="eisepbIUf9f-H5HwsfT_-47" value="调用拦截器的intercept返回响应" style="edgeLabel;html=1;align=center;verticalAlign=middle;resizable=0;points=[];fontSize=12;fontColor=#000000;" parent="eisepbIUf9f-H5HwsfT_-46" vertex="1" connectable="0">
          <mxGeometry x="-0.2" y="2" relative="1" as="geometry">
            <mxPoint x="23" y="-3" as="offset" />
          </mxGeometry>
        </mxCell>
        <mxCell id="eisepbIUf9f-H5HwsfT_-48" value="response = request.execute();" style="rounded=0;whiteSpace=wrap;" parent="1" vertex="1">
          <mxGeometry x="1100" y="680" width="200" height="60" as="geometry" />
        </mxCell>
        <mxCell id="eisepbIUf9f-H5HwsfT_-53" style="edgeStyle=orthogonalEdgeStyle;rounded=0;orthogonalLoop=1;jettySize=auto;html=1;exitX=0;exitY=0.5;exitDx=0;exitDy=0;entryX=1;entryY=0.5;entryDx=0;entryDy=0;fontSize=12;fontColor=#000000;" parent="1" source="eisepbIUf9f-H5HwsfT_-49" target="eisepbIUf9f-H5HwsfT_-50" edge="1">
          <mxGeometry relative="1" as="geometry" />
        </mxCell>
        <mxCell id="eisepbIUf9f-H5HwsfT_-49" value="const nextInterceptor = nextInterceptor = this.iterator.next()&#xa;&#xa;&#xa;return nextInterceptor.intercept(request, body, this);&#xa;" style="rounded=0;whiteSpace=wrap;" parent="1" vertex="1">
          <mxGeometry x="920" y="1010" width="220" height="130" as="geometry" />
        </mxCell>
        <mxCell id="eisepbIUf9f-H5HwsfT_-51" style="edgeStyle=orthogonalEdgeStyle;rounded=0;orthogonalLoop=1;jettySize=auto;html=1;exitX=0.5;exitY=0;exitDx=0;exitDy=0;entryX=0.5;entryY=1;entryDx=0;entryDy=0;fontSize=12;fontColor=#000000;dashed=1;" parent="1" source="eisepbIUf9f-H5HwsfT_-50" target="YZ4I5TcnRw2fmJpVWaly-17" edge="1">
          <mxGeometry relative="1" as="geometry" />
        </mxCell>
        <mxCell id="eisepbIUf9f-H5HwsfT_-52" value="属于" style="edgeLabel;html=1;align=center;verticalAlign=middle;resizable=0;points=[];fontSize=12;fontColor=#000000;" parent="eisepbIUf9f-H5HwsfT_-51" vertex="1" connectable="0">
          <mxGeometry x="0.1895" y="-3" relative="1" as="geometry">
            <mxPoint as="offset" />
          </mxGeometry>
        </mxCell>
        <mxCell id="eisepbIUf9f-H5HwsfT_-56" value="" style="edgeStyle=orthogonalEdgeStyle;rounded=0;orthogonalLoop=1;jettySize=auto;html=1;fontSize=12;fontColor=#000000;" parent="1" source="eisepbIUf9f-H5HwsfT_-50" target="eisepbIUf9f-H5HwsfT_-55" edge="1">
          <mxGeometry relative="1" as="geometry" />
        </mxCell>
        <mxCell id="eisepbIUf9f-H5HwsfT_-57" value="获取调用的服务名称" style="edgeLabel;html=1;align=center;verticalAlign=middle;resizable=0;points=[];fontSize=12;fontColor=#000000;" parent="eisepbIUf9f-H5HwsfT_-56" vertex="1" connectable="0">
          <mxGeometry x="0.296" y="-1" relative="1" as="geometry">
            <mxPoint as="offset" />
          </mxGeometry>
        </mxCell>
        <mxCell id="eisepbIUf9f-H5HwsfT_-50" value="intercept" style="rounded=0;whiteSpace=wrap;" parent="1" vertex="1">
          <mxGeometry x="-140" y="895" width="200" height="60" as="geometry" />
        </mxCell>
        <mxCell id="eisepbIUf9f-H5HwsfT_-59" value="" style="edgeStyle=orthogonalEdgeStyle;rounded=0;orthogonalLoop=1;jettySize=auto;html=1;fontSize=12;fontColor=#000000;" parent="1" source="eisepbIUf9f-H5HwsfT_-55" target="eisepbIUf9f-H5HwsfT_-58" edge="1">
          <mxGeometry relative="1" as="geometry" />
        </mxCell>
        <mxCell id="eisepbIUf9f-H5HwsfT_-55" value="String serviceName = originalUri.getHost();" style="rounded=0;whiteSpace=wrap;" parent="1" vertex="1">
          <mxGeometry x="-140" y="1090" width="200" height="60" as="geometry" />
        </mxCell>
        <mxCell id="eisepbIUf9f-H5HwsfT_-78" style="edgeStyle=orthogonalEdgeStyle;rounded=0;orthogonalLoop=1;jettySize=auto;html=1;exitX=0;exitY=0.5;exitDx=0;exitDy=0;entryX=1;entryY=0.5;entryDx=0;entryDy=0;fontSize=12;fontColor=#000000;" parent="1" source="eisepbIUf9f-H5HwsfT_-58" target="eisepbIUf9f-H5HwsfT_-72" edge="1">
          <mxGeometry relative="1" as="geometry" />
        </mxCell>
        <mxCell id="eisepbIUf9f-H5HwsfT_-134" value="调用loadbalancer的execute" style="edgeLabel;html=1;align=center;verticalAlign=middle;resizable=0;points=[];fontSize=14;fontColor=#000000;" parent="eisepbIUf9f-H5HwsfT_-78" vertex="1" connectable="0">
          <mxGeometry x="0.1861" y="2" relative="1" as="geometry">
            <mxPoint x="9" y="-2" as="offset" />
          </mxGeometry>
        </mxCell>
        <mxCell id="eisepbIUf9f-H5HwsfT_-58" value="return this.loadBalancer.execute(serviceName,&#xa;      this.requestFactory.createRequest(request, body, execution));" style="rounded=0;whiteSpace=wrap;" parent="1" vertex="1">
          <mxGeometry x="-165" y="1220" width="250" height="160" as="geometry" />
        </mxCell>
        <mxCell id="eisepbIUf9f-H5HwsfT_-64" style="edgeStyle=orthogonalEdgeStyle;rounded=0;orthogonalLoop=1;jettySize=auto;html=1;exitX=1;exitY=0.5;exitDx=0;exitDy=0;entryX=0;entryY=0.5;entryDx=0;entryDy=0;fontSize=12;fontColor=#000000;dashed=1;" parent="1" source="eisepbIUf9f-H5HwsfT_-60" target="YZ4I5TcnRw2fmJpVWaly-17" edge="1">
          <mxGeometry relative="1" as="geometry" />
        </mxCell>
        <mxCell id="eisepbIUf9f-H5HwsfT_-65" value="注入到" style="edgeLabel;html=1;align=center;verticalAlign=middle;resizable=0;points=[];fontSize=12;fontColor=#000000;" parent="eisepbIUf9f-H5HwsfT_-64" vertex="1" connectable="0">
          <mxGeometry x="-0.3091" y="-1" relative="1" as="geometry">
            <mxPoint x="12" y="-1" as="offset" />
          </mxGeometry>
        </mxCell>
        <mxCell id="eisepbIUf9f-H5HwsfT_-60" value="LoadBalancerRequestFactory" style="rounded=0;whiteSpace=wrap;" parent="1" vertex="1">
          <mxGeometry x="-450" y="320" width="200" height="60" as="geometry" />
        </mxCell>
        <mxCell id="eisepbIUf9f-H5HwsfT_-68" style="edgeStyle=orthogonalEdgeStyle;rounded=0;orthogonalLoop=1;jettySize=auto;html=1;exitX=0.5;exitY=1;exitDx=0;exitDy=0;dashed=1;fontSize=12;fontColor=#000000;" parent="1" source="eisepbIUf9f-H5HwsfT_-66" target="eisepbIUf9f-H5HwsfT_-67" edge="1">
          <mxGeometry relative="1" as="geometry" />
        </mxCell>
        <mxCell id="eisepbIUf9f-H5HwsfT_-69" value="@Bean" style="edgeLabel;html=1;align=center;verticalAlign=middle;resizable=0;points=[];fontSize=12;fontColor=#000000;" parent="eisepbIUf9f-H5HwsfT_-68" vertex="1" connectable="0">
          <mxGeometry x="0.3571" y="-2" relative="1" as="geometry">
            <mxPoint y="-25" as="offset" />
          </mxGeometry>
        </mxCell>
        <mxCell id="eisepbIUf9f-H5HwsfT_-66" value="RibbonAutoConfiguration" style="rounded=0;whiteSpace=wrap;fillColor=#dae8fc;strokeColor=#6c8ebf;gradientColor=#7ea6e0;" parent="1" vertex="1">
          <mxGeometry x="-827" y="120" width="200" height="60" as="geometry" />
        </mxCell>
        <mxCell id="eisepbIUf9f-H5HwsfT_-70" style="edgeStyle=orthogonalEdgeStyle;rounded=0;orthogonalLoop=1;jettySize=auto;html=1;exitX=1;exitY=0.5;exitDx=0;exitDy=0;fontSize=12;fontColor=#000000;" parent="1" source="eisepbIUf9f-H5HwsfT_-67" target="eisepbIUf9f-H5HwsfT_-60" edge="1">
          <mxGeometry relative="1" as="geometry" />
        </mxCell>
        <mxCell id="eisepbIUf9f-H5HwsfT_-71" value="注入到" style="edgeLabel;html=1;align=center;verticalAlign=middle;resizable=0;points=[];fontSize=12;fontColor=#000000;" parent="eisepbIUf9f-H5HwsfT_-70" vertex="1" connectable="0">
          <mxGeometry x="-0.2655" y="-3" relative="1" as="geometry">
            <mxPoint x="12" y="-3" as="offset" />
          </mxGeometry>
        </mxCell>
        <mxCell id="eisepbIUf9f-H5HwsfT_-67" value="RibbonLoadBalancerClient" style="rounded=0;whiteSpace=wrap;" parent="1" vertex="1">
          <mxGeometry x="-827" y="320" width="200" height="60" as="geometry" />
        </mxCell>
        <mxCell id="eisepbIUf9f-H5HwsfT_-74" style="edgeStyle=orthogonalEdgeStyle;rounded=0;orthogonalLoop=1;jettySize=auto;html=1;exitX=0.5;exitY=0;exitDx=0;exitDy=0;entryX=0.5;entryY=1;entryDx=0;entryDy=0;fontSize=12;fontColor=#000000;dashed=1;" parent="1" source="eisepbIUf9f-H5HwsfT_-72" target="eisepbIUf9f-H5HwsfT_-67" edge="1">
          <mxGeometry relative="1" as="geometry" />
        </mxCell>
        <mxCell id="eisepbIUf9f-H5HwsfT_-75" value="属于" style="edgeLabel;html=1;align=center;verticalAlign=middle;resizable=0;points=[];fontSize=12;fontColor=#000000;" parent="eisepbIUf9f-H5HwsfT_-74" vertex="1" connectable="0">
          <mxGeometry x="-0.25" y="-2" relative="1" as="geometry">
            <mxPoint x="-2" y="-10" as="offset" />
          </mxGeometry>
        </mxCell>
        <mxCell id="eisepbIUf9f-H5HwsfT_-80" value="" style="edgeStyle=orthogonalEdgeStyle;rounded=0;orthogonalLoop=1;jettySize=auto;html=1;fontSize=12;fontColor=#000000;" parent="1" source="eisepbIUf9f-H5HwsfT_-72" target="eisepbIUf9f-H5HwsfT_-79" edge="1">
          <mxGeometry relative="1" as="geometry" />
        </mxCell>
        <mxCell id="eisepbIUf9f-H5HwsfT_-72" value="execute()" style="rounded=0;whiteSpace=wrap;" parent="1" vertex="1">
          <mxGeometry x="-827" y="1270" width="200" height="60" as="geometry" />
        </mxCell>
        <mxCell id="eisepbIUf9f-H5HwsfT_-94" value="" style="edgeStyle=orthogonalEdgeStyle;rounded=0;orthogonalLoop=1;jettySize=auto;html=1;fontSize=12;fontColor=#000000;" parent="1" source="eisepbIUf9f-H5HwsfT_-79" target="eisepbIUf9f-H5HwsfT_-93" edge="1">
          <mxGeometry relative="1" as="geometry" />
        </mxCell>
        <mxCell id="eisepbIUf9f-H5HwsfT_-79" value="ILoadBalancer loadBalancer = getLoadBalancer(serviceId);" style="rounded=0;whiteSpace=wrap;" parent="1" vertex="1">
          <mxGeometry x="-827" y="1410" width="200" height="60" as="geometry" />
        </mxCell>
        <mxCell id="eisepbIUf9f-H5HwsfT_-85" style="edgeStyle=orthogonalEdgeStyle;rounded=0;orthogonalLoop=1;jettySize=auto;html=1;exitX=0.25;exitY=1;exitDx=0;exitDy=0;entryX=0.5;entryY=0;entryDx=0;entryDy=0;fontSize=12;fontColor=#000000;" parent="1" source="eisepbIUf9f-H5HwsfT_-81" target="eisepbIUf9f-H5HwsfT_-82" edge="1">
          <mxGeometry relative="1" as="geometry" />
        </mxCell>
        <mxCell id="eisepbIUf9f-H5HwsfT_-88" value="@Bean" style="edgeLabel;html=1;align=center;verticalAlign=middle;resizable=0;points=[];fontSize=12;fontColor=#000000;" parent="eisepbIUf9f-H5HwsfT_-85" vertex="1" connectable="0">
          <mxGeometry x="-0.0552" y="-3" relative="1" as="geometry">
            <mxPoint as="offset" />
          </mxGeometry>
        </mxCell>
        <mxCell id="eisepbIUf9f-H5HwsfT_-86" style="edgeStyle=orthogonalEdgeStyle;rounded=0;orthogonalLoop=1;jettySize=auto;html=1;exitX=0.5;exitY=1;exitDx=0;exitDy=0;fontSize=12;fontColor=#000000;" parent="1" source="eisepbIUf9f-H5HwsfT_-81" target="eisepbIUf9f-H5HwsfT_-84" edge="1">
          <mxGeometry relative="1" as="geometry">
            <Array as="points">
              <mxPoint x="-1246" y="949" />
              <mxPoint x="-1246" y="1030" />
              <mxPoint x="-1006" y="1030" />
            </Array>
          </mxGeometry>
        </mxCell>
        <mxCell id="eisepbIUf9f-H5HwsfT_-90" value="@Bean" style="edgeLabel;html=1;align=center;verticalAlign=middle;resizable=0;points=[];fontSize=12;fontColor=#000000;" parent="eisepbIUf9f-H5HwsfT_-86" vertex="1" connectable="0">
          <mxGeometry x="0.0325" y="-2" relative="1" as="geometry">
            <mxPoint as="offset" />
          </mxGeometry>
        </mxCell>
        <mxCell id="eisepbIUf9f-H5HwsfT_-87" style="edgeStyle=orthogonalEdgeStyle;rounded=0;orthogonalLoop=1;jettySize=auto;html=1;exitX=0.5;exitY=1;exitDx=0;exitDy=0;fontSize=12;fontColor=#000000;" parent="1" source="eisepbIUf9f-H5HwsfT_-81" target="eisepbIUf9f-H5HwsfT_-83" edge="1">
          <mxGeometry relative="1" as="geometry" />
        </mxCell>
        <mxCell id="eisepbIUf9f-H5HwsfT_-89" value="@Bean" style="edgeLabel;html=1;align=center;verticalAlign=middle;resizable=0;points=[];fontSize=12;fontColor=#000000;" parent="eisepbIUf9f-H5HwsfT_-87" vertex="1" connectable="0">
          <mxGeometry x="-0.3" y="-1" relative="1" as="geometry">
            <mxPoint x="1" y="24.17" as="offset" />
          </mxGeometry>
        </mxCell>
        <mxCell id="eisepbIUf9f-H5HwsfT_-81" value="RibbonClientConfiguration" style="rounded=0;whiteSpace=wrap;fillColor=#dae8fc;strokeColor=#6c8ebf;gradientColor=#7ea6e0;" parent="1" vertex="1">
          <mxGeometry x="-1396" y="889" width="200" height="60" as="geometry" />
        </mxCell>
        <mxCell id="eisepbIUf9f-H5HwsfT_-82" value="ZoneAvoidanceRule" style="rounded=0;whiteSpace=wrap;" parent="1" vertex="1">
          <mxGeometry x="-1680" y="1109" width="200" height="60" as="geometry" />
        </mxCell>
        <mxCell id="eisepbIUf9f-H5HwsfT_-83" value="DummyPing" style="rounded=0;whiteSpace=wrap;" parent="1" vertex="1">
          <mxGeometry x="-1396" y="1109" width="200" height="60" as="geometry" />
        </mxCell>
        <mxCell id="eisepbIUf9f-H5HwsfT_-108" value="" style="edgeStyle=orthogonalEdgeStyle;curved=1;rounded=0;orthogonalLoop=1;jettySize=auto;html=1;fontSize=12;fontColor=#000000;" parent="1" source="eisepbIUf9f-H5HwsfT_-84" target="eisepbIUf9f-H5HwsfT_-107" edge="1">
          <mxGeometry relative="1" as="geometry" />
        </mxCell>
        <mxCell id="eisepbIUf9f-H5HwsfT_-110" value="父类构造函数" style="edgeLabel;html=1;align=center;verticalAlign=middle;resizable=0;points=[];fontSize=12;fontColor=#000000;" parent="eisepbIUf9f-H5HwsfT_-108" vertex="1" connectable="0">
          <mxGeometry x="0.3234" relative="1" as="geometry">
            <mxPoint as="offset" />
          </mxGeometry>
        </mxCell>
        <mxCell id="eisepbIUf9f-H5HwsfT_-84" value="ZoneAwareLoadBalancer" style="rounded=0;whiteSpace=wrap;" parent="1" vertex="1">
          <mxGeometry x="-1116" y="1109" width="200" height="60" as="geometry" />
        </mxCell>
        <mxCell id="eisepbIUf9f-H5HwsfT_-96" value="" style="edgeStyle=orthogonalEdgeStyle;rounded=0;orthogonalLoop=1;jettySize=auto;html=1;fontSize=12;fontColor=#000000;" parent="1" source="eisepbIUf9f-H5HwsfT_-93" target="eisepbIUf9f-H5HwsfT_-95" edge="1">
          <mxGeometry relative="1" as="geometry" />
        </mxCell>
        <mxCell id="eisepbIUf9f-H5HwsfT_-93" value="Server server = getServer(loadBalancer, serviceId);" style="rounded=0;whiteSpace=wrap;" parent="1" vertex="1">
          <mxGeometry x="-827" y="1580" width="200" height="60" as="geometry" />
        </mxCell>
        <mxCell id="eisepbIUf9f-H5HwsfT_-98" value="" style="edgeStyle=orthogonalEdgeStyle;rounded=0;orthogonalLoop=1;jettySize=auto;html=1;fontSize=12;fontColor=#000000;" parent="1" source="eisepbIUf9f-H5HwsfT_-95" target="eisepbIUf9f-H5HwsfT_-97" edge="1">
          <mxGeometry relative="1" as="geometry" />
        </mxCell>
        <mxCell id="eisepbIUf9f-H5HwsfT_-95" value="return loadBalancer.chooseServer&#xa;(serviceId);" style="rounded=0;whiteSpace=wrap;" parent="1" vertex="1">
          <mxGeometry x="-825.5" y="1700" width="197" height="50" as="geometry" />
        </mxCell>
        <mxCell id="eisepbIUf9f-H5HwsfT_-100" value="" style="edgeStyle=orthogonalEdgeStyle;rounded=0;orthogonalLoop=1;jettySize=auto;html=1;fontSize=12;fontColor=#000000;" parent="1" source="eisepbIUf9f-H5HwsfT_-97" target="eisepbIUf9f-H5HwsfT_-99" edge="1">
          <mxGeometry relative="1" as="geometry" />
        </mxCell>
        <mxCell id="eisepbIUf9f-H5HwsfT_-131" value="根据使用rule从loadBalancer的服务列表中挑选一个服务返回" style="edgeLabel;html=1;align=center;verticalAlign=middle;resizable=0;points=[];fontSize=12;fontColor=#000000;" parent="eisepbIUf9f-H5HwsfT_-100" vertex="1" connectable="0">
          <mxGeometry x="-0.2" relative="1" as="geometry">
            <mxPoint y="10" as="offset" />
          </mxGeometry>
        </mxCell>
        <mxCell id="eisepbIUf9f-H5HwsfT_-97" value="return rule.choose(serviceId);" style="rounded=0;whiteSpace=wrap;" parent="1" vertex="1">
          <mxGeometry x="-825.5" y="1830" width="197" height="50" as="geometry" />
        </mxCell>
        <mxCell id="eisepbIUf9f-H5HwsfT_-99" value="serverList = lb.getAllServers()&#xa;&#xa;return &#xa;chooseRoundRobinAfterFiltering(serverList)" style="rounded=0;whiteSpace=wrap;" parent="1" vertex="1">
          <mxGeometry x="-880" y="1980" width="306" height="80" as="geometry" />
        </mxCell>
        <mxCell id="eisepbIUf9f-H5HwsfT_-112" value="" style="edgeStyle=orthogonalEdgeStyle;curved=1;rounded=0;orthogonalLoop=1;jettySize=auto;html=1;fontSize=12;fontColor=#000000;" parent="1" source="eisepbIUf9f-H5HwsfT_-107" target="eisepbIUf9f-H5HwsfT_-111" edge="1">
          <mxGeometry relative="1" as="geometry" />
        </mxCell>
        <mxCell id="eisepbIUf9f-H5HwsfT_-107" value="DynamicServerListLoadBalancer" style="rounded=0;whiteSpace=wrap;" parent="1" vertex="1">
          <mxGeometry x="-1116" y="1270" width="200" height="60" as="geometry" />
        </mxCell>
        <mxCell id="eisepbIUf9f-H5HwsfT_-114" value="" style="rounded=0;orthogonalLoop=1;jettySize=auto;html=1;fontSize=12;fontColor=#000000;strokeColor=none;edgeStyle=orthogonalEdgeStyle;" parent="1" source="eisepbIUf9f-H5HwsfT_-111" target="eisepbIUf9f-H5HwsfT_-113" edge="1">
          <mxGeometry relative="1" as="geometry" />
        </mxCell>
        <mxCell id="eisepbIUf9f-H5HwsfT_-115" style="edgeStyle=orthogonalEdgeStyle;rounded=0;orthogonalLoop=1;jettySize=auto;html=1;exitX=0.25;exitY=1;exitDx=0;exitDy=0;entryX=0.5;entryY=0;entryDx=0;entryDy=0;fontSize=12;fontColor=#000000;" parent="1" source="eisepbIUf9f-H5HwsfT_-111" target="eisepbIUf9f-H5HwsfT_-113" edge="1">
          <mxGeometry relative="1" as="geometry" />
        </mxCell>
        <mxCell id="eisepbIUf9f-H5HwsfT_-132" style="edgeStyle=orthogonalEdgeStyle;rounded=0;orthogonalLoop=1;jettySize=auto;html=1;exitX=0.5;exitY=1;exitDx=0;exitDy=0;entryX=1;entryY=0.5;entryDx=0;entryDy=0;fontSize=12;fontColor=#000000;" parent="1" source="eisepbIUf9f-H5HwsfT_-111" target="eisepbIUf9f-H5HwsfT_-124" edge="1">
          <mxGeometry relative="1" as="geometry" />
        </mxCell>
        <mxCell id="eisepbIUf9f-H5HwsfT_-133" value="在被初始化时&lt;br&gt;提交一个定时拉取任务&lt;br&gt;并且拉取一次服务列表到内存中" style="edgeLabel;html=1;align=center;verticalAlign=middle;resizable=0;points=[];fontSize=12;fontColor=#000000;" parent="eisepbIUf9f-H5HwsfT_-132" vertex="1" connectable="0">
          <mxGeometry x="-0.573" y="5" relative="1" as="geometry">
            <mxPoint x="-5" y="60" as="offset" />
          </mxGeometry>
        </mxCell>
        <mxCell id="eisepbIUf9f-H5HwsfT_-111" value="restOfInit(clientConfig);" style="rounded=0;whiteSpace=wrap;" parent="1" vertex="1">
          <mxGeometry x="-1116" y="1410" width="200" height="60" as="geometry" />
        </mxCell>
        <mxCell id="eisepbIUf9f-H5HwsfT_-117" value="" style="edgeStyle=orthogonalEdgeStyle;rounded=0;orthogonalLoop=1;jettySize=auto;html=1;fontSize=12;fontColor=#000000;" parent="1" source="eisepbIUf9f-H5HwsfT_-113" target="eisepbIUf9f-H5HwsfT_-116" edge="1">
          <mxGeometry relative="1" as="geometry" />
        </mxCell>
        <mxCell id="eisepbIUf9f-H5HwsfT_-113" value="enableAndInitLearnNewServersFeature" style="rounded=0;whiteSpace=wrap;" parent="1" vertex="1">
          <mxGeometry x="-1390" y="1560" width="226" height="50" as="geometry" />
        </mxCell>
        <mxCell id="eisepbIUf9f-H5HwsfT_-119" value="" style="edgeStyle=orthogonalEdgeStyle;rounded=0;orthogonalLoop=1;jettySize=auto;html=1;fontSize=12;fontColor=#000000;" parent="1" source="eisepbIUf9f-H5HwsfT_-116" target="eisepbIUf9f-H5HwsfT_-118" edge="1">
          <mxGeometry relative="1" as="geometry" />
        </mxCell>
        <mxCell id="eisepbIUf9f-H5HwsfT_-120" value="提交定时任务" style="edgeLabel;html=1;align=center;verticalAlign=middle;resizable=0;points=[];fontSize=12;fontColor=#000000;" parent="eisepbIUf9f-H5HwsfT_-119" vertex="1" connectable="0">
          <mxGeometry x="0.2708" y="1" relative="1" as="geometry">
            <mxPoint as="offset" />
          </mxGeometry>
        </mxCell>
        <mxCell id="eisepbIUf9f-H5HwsfT_-116" value="serverListUpdater.start(updateAction);" style="rounded=0;whiteSpace=wrap;" parent="1" vertex="1">
          <mxGeometry x="-1390" y="1690" width="226" height="50" as="geometry" />
        </mxCell>
        <mxCell id="eisepbIUf9f-H5HwsfT_-122" value="" style="edgeStyle=orthogonalEdgeStyle;rounded=0;orthogonalLoop=1;jettySize=auto;html=1;fontSize=12;fontColor=#000000;dashed=1;" parent="1" source="eisepbIUf9f-H5HwsfT_-118" target="eisepbIUf9f-H5HwsfT_-121" edge="1">
          <mxGeometry relative="1" as="geometry" />
        </mxCell>
        <mxCell id="eisepbIUf9f-H5HwsfT_-123" value="被调度" style="edgeLabel;html=1;align=center;verticalAlign=middle;resizable=0;points=[];fontSize=12;fontColor=#000000;" parent="eisepbIUf9f-H5HwsfT_-122" vertex="1" connectable="0">
          <mxGeometry x="0.3" y="-1" relative="1" as="geometry">
            <mxPoint as="offset" />
          </mxGeometry>
        </mxCell>
        <mxCell id="eisepbIUf9f-H5HwsfT_-118" value="scheduledFuture = getRefreshExecutor().scheduleWithFixedDelay(&#xa;        wrapperRunnable,&#xa;        initialDelayMs,&#xa;        refreshIntervalMs,&#xa;        TimeUnit.MILLISECONDS&#xa;);" style="rounded=0;whiteSpace=wrap;" parent="1" vertex="1">
          <mxGeometry x="-1412" y="1820" width="270" height="160" as="geometry" />
        </mxCell>
        <mxCell id="eisepbIUf9f-H5HwsfT_-125" value="" style="edgeStyle=orthogonalEdgeStyle;rounded=0;orthogonalLoop=1;jettySize=auto;html=1;fontSize=12;fontColor=#000000;" parent="1" source="eisepbIUf9f-H5HwsfT_-121" target="eisepbIUf9f-H5HwsfT_-124" edge="1">
          <mxGeometry relative="1" as="geometry" />
        </mxCell>
        <mxCell id="eisepbIUf9f-H5HwsfT_-121" value="updateAction.doUpdate();" style="rounded=0;whiteSpace=wrap;" parent="1" vertex="1">
          <mxGeometry x="-1383" y="2080" width="212" height="30" as="geometry" />
        </mxCell>
        <mxCell id="eisepbIUf9f-H5HwsfT_-127" value="" style="edgeStyle=orthogonalEdgeStyle;rounded=0;orthogonalLoop=1;jettySize=auto;html=1;fontSize=12;fontColor=#000000;" parent="1" source="eisepbIUf9f-H5HwsfT_-124" target="eisepbIUf9f-H5HwsfT_-126" edge="1">
          <mxGeometry relative="1" as="geometry" />
        </mxCell>
        <mxCell id="eisepbIUf9f-H5HwsfT_-124" value="updateListOfServers()" style="rounded=0;whiteSpace=wrap;" parent="1" vertex="1">
          <mxGeometry x="-1383" y="2190" width="212" height="30" as="geometry" />
        </mxCell>
        <mxCell id="eisepbIUf9f-H5HwsfT_-129" value="" style="edgeStyle=orthogonalEdgeStyle;rounded=0;orthogonalLoop=1;jettySize=auto;html=1;fontSize=12;fontColor=#000000;" parent="1" source="eisepbIUf9f-H5HwsfT_-126" target="eisepbIUf9f-H5HwsfT_-128" edge="1">
          <mxGeometry relative="1" as="geometry" />
        </mxCell>
        <mxCell id="eisepbIUf9f-H5HwsfT_-130" value="更新loadBalancer的内存服务列表" style="edgeLabel;html=1;align=center;verticalAlign=middle;resizable=0;points=[];fontSize=12;fontColor=#000000;" parent="eisepbIUf9f-H5HwsfT_-129" vertex="1" connectable="0">
          <mxGeometry x="0.2708" y="-1" relative="1" as="geometry">
            <mxPoint x="1" y="-10.83" as="offset" />
          </mxGeometry>
        </mxCell>
        <mxCell id="eisepbIUf9f-H5HwsfT_-143" style="edgeStyle=orthogonalEdgeStyle;rounded=0;orthogonalLoop=1;jettySize=auto;html=1;exitX=0;exitY=0.5;exitDx=0;exitDy=0;entryX=1;entryY=0.5;entryDx=0;entryDy=0;fontSize=14;fontColor=#000000;dashed=1;" parent="1" source="eisepbIUf9f-H5HwsfT_-126" target="eisepbIUf9f-H5HwsfT_-138" edge="1">
          <mxGeometry relative="1" as="geometry" />
        </mxCell>
        <mxCell id="eisepbIUf9f-H5HwsfT_-126" value="List&lt;T&gt; servers = serverListImpl.getUpdatedListOfServers();" style="rounded=0;whiteSpace=wrap;" parent="1" vertex="1">
          <mxGeometry x="-1399.75" y="2300" width="243.5" height="50" as="geometry" />
        </mxCell>
        <mxCell id="eisepbIUf9f-H5HwsfT_-128" value="loadbalancer.serverList = servers" style="rounded=0;whiteSpace=wrap;fillColor=#f8cecc;strokeColor=#b85450;" parent="1" vertex="1">
          <mxGeometry x="-1398.75" y="2430" width="243.5" height="50" as="geometry" />
        </mxCell>
        <mxCell id="eisepbIUf9f-H5HwsfT_-139" style="edgeStyle=orthogonalEdgeStyle;rounded=0;orthogonalLoop=1;jettySize=auto;html=1;exitX=0.5;exitY=1;exitDx=0;exitDy=0;entryX=0.5;entryY=0;entryDx=0;entryDy=0;fontSize=14;fontColor=#000000;" parent="1" source="eisepbIUf9f-H5HwsfT_-135" target="eisepbIUf9f-H5HwsfT_-138" edge="1">
          <mxGeometry relative="1" as="geometry">
            <Array as="points">
              <mxPoint x="-1930" y="2230" />
              <mxPoint x="-1930" y="2230" />
            </Array>
          </mxGeometry>
        </mxCell>
        <mxCell id="eisepbIUf9f-H5HwsfT_-141" value="@Bean" style="edgeLabel;html=1;align=center;verticalAlign=middle;resizable=0;points=[];fontSize=14;fontColor=#000000;" parent="eisepbIUf9f-H5HwsfT_-139" vertex="1" connectable="0">
          <mxGeometry x="0.2621" y="2" relative="1" as="geometry">
            <mxPoint x="-2" y="-10" as="offset" />
          </mxGeometry>
        </mxCell>
        <mxCell id="eisepbIUf9f-H5HwsfT_-135" value="NacosRibbonClientConfiguration" style="rounded=0;whiteSpace=wrap;fillColor=#dae8fc;strokeColor=#6c8ebf;gradientColor=#7ea6e0;" parent="1" vertex="1">
          <mxGeometry x="-2030" y="2145" width="200" height="60" as="geometry" />
        </mxCell>
        <mxCell id="eisepbIUf9f-H5HwsfT_-145" value="" style="edgeStyle=orthogonalEdgeStyle;rounded=0;orthogonalLoop=1;jettySize=auto;html=1;fontSize=14;fontColor=#000000;" parent="1" source="eisepbIUf9f-H5HwsfT_-138" target="eisepbIUf9f-H5HwsfT_-144" edge="1">
          <mxGeometry relative="1" as="geometry" />
        </mxCell>
        <mxCell id="eisepbIUf9f-H5HwsfT_-146" value="&lt;span style=&quot;font-size: 12px ; background-color: rgb(248 , 249 , 250)&quot;&gt;getUpdatedListOfServers()&lt;/span&gt;" style="edgeLabel;html=1;align=center;verticalAlign=middle;resizable=0;points=[];fontSize=14;fontColor=#000000;" parent="eisepbIUf9f-H5HwsfT_-145" vertex="1" connectable="0">
          <mxGeometry x="0.25" y="-1" relative="1" as="geometry">
            <mxPoint as="offset" />
          </mxGeometry>
        </mxCell>
        <mxCell id="eisepbIUf9f-H5HwsfT_-138" value="NacosServerList" style="rounded=0;whiteSpace=wrap;" parent="1" vertex="1">
          <mxGeometry x="-2051.75" y="2300" width="243.5" height="50" as="geometry" />
        </mxCell>
        <mxCell id="eisepbIUf9f-H5HwsfT_-144" value="retrun &#xa;namingServiceInstance()&#xa;      .selectInstances(serviceId, group, true);" style="rounded=0;whiteSpace=wrap;fontSize=14;" parent="1" vertex="1">
          <mxGeometry x="-2055.87" y="2480" width="251.75" height="100" as="geometry" />
        </mxCell>
        <mxCell id="9JMyvKj739sPmpi3a1Pc-2" style="edgeStyle=orthogonalEdgeStyle;rounded=0;orthogonalLoop=1;jettySize=auto;html=1;exitX=0;exitY=0.5;exitDx=0;exitDy=0;fontSize=14;fontColor=#000000;" edge="1" parent="1" source="9JMyvKj739sPmpi3a1Pc-1" target="eisepbIUf9f-H5HwsfT_-49">
          <mxGeometry relative="1" as="geometry" />
        </mxCell>
        <mxCell id="9JMyvKj739sPmpi3a1Pc-1" value="InterceptingClientHttpRequest" style="ellipse;whiteSpace=wrap;aspect=fixed;fontSize=14;fontColor=#000000;align=center;" vertex="1" parent="1">
          <mxGeometry x="1290" y="970" width="210" height="210" as="geometry" />
        </mxCell>
      </root>
    </mxGraphModel>
  </diagram>
</mxfile>
